<?xml version="1.0" encoding="UTF-8"?><svg id="Layer_1" xmlns="http://www.w3.org/2000/svg" viewBox="0 0 285.09 43.01"><defs><style>.cls-1{fill:#fff;}</style></defs><path class="cls-1" d="M3.58,16.46h3.36l-3.58,25.87H0l3.58-25.87ZM4.2,6.22c.11-.71.44-1.31.98-1.79.54-.48,1.17-.73,1.88-.73s1.28.24,1.71.73c.43.49.59,1.08.48,1.79-.08.71-.39,1.31-.95,1.79-.56.49-1.2.73-1.9.73s-1.27-.24-1.68-.73c-.41-.48-.58-1.08-.5-1.79Z"/><path class="cls-1" d="M19.38,2.69h3.7l-5.1,36.29h18.48l-.45,3.36H13.83L19.38,2.69Z"/><path class="cls-1" d="M45.02,16.46h3.36l-3.58,25.87h-3.36l3.58-25.87ZM45.64,6.22c.11-.71.44-1.31.98-1.79.54-.48,1.17-.73,1.88-.73s1.28.24,1.71.73c.43.49.59,1.08.48,1.79-.08.71-.39,1.31-.95,1.79-.56.49-1.2.73-1.9.73s-1.27-.24-1.68-.73c-.41-.48-.58-1.08-.5-1.79Z"/><path class="cls-1" d="M60.25,0h3.36l-3.98,28.22,14.39-11.7h4.93l-14.95,11.82,12.94,14h-5.1l-12.26-13.66-1.9,13.66h-3.36L60.25,0Z"/><path class="cls-1" d="M104.77,37.46c-1.61,1.98-3.43,3.4-5.46,4.26-2.04.86-4.21,1.29-6.52,1.29-1.98,0-3.72-.34-5.24-1.01-1.51-.67-2.76-1.61-3.75-2.83-.99-1.21-1.68-2.65-2.07-4.31-.39-1.66-.44-3.5-.14-5.52.26-1.94.83-3.73,1.71-5.38.88-1.64,1.98-3.07,3.3-4.28,1.32-1.21,2.82-2.17,4.48-2.86,1.66-.69,3.44-1.04,5.35-1.04s3.68.35,5.1,1.04c1.42.69,2.57,1.61,3.44,2.74.88,1.14,1.47,2.44,1.79,3.89.32,1.46.36,2.93.14,4.42l-.34,2.35h-21.73c-.11.71-.1,1.62.03,2.72.13,1.1.49,2.17,1.09,3.22.6,1.05,1.46,1.94,2.6,2.69,1.14.75,2.7,1.12,4.68,1.12,1.72,0,3.44-.41,5.18-1.23,1.74-.82,3.13-1.94,4.17-3.36l2.18,2.07ZM103.6,27.22c.15-1.16.07-2.24-.22-3.25-.3-1.01-.8-1.89-1.51-2.66-.71-.77-1.58-1.37-2.6-1.82-1.03-.45-2.16-.67-3.39-.67-1.83,0-3.41.37-4.73,1.12-1.33.75-2.42,1.61-3.28,2.58-.86.97-1.5,1.91-1.93,2.83-.43.92-.66,1.54-.7,1.88h18.37Z"/><path class="cls-1" d="M118.49,2.69h5.54l9.8,33.26L152.93,2.69h5.26l-5.54,39.65h-3.7l4.87-34.94h-.11l-19.99,34.94h-1.62l-10.47-34.94h-.11l-4.87,34.94h-3.7l5.54-39.65Z"/><path class="cls-1" d="M162.51,29.4c.26-1.98.85-3.8,1.76-5.46.91-1.66,2.05-3.1,3.42-4.31,1.36-1.21,2.93-2.16,4.7-2.83,1.77-.67,3.65-1.01,5.63-1.01s3.75.34,5.32,1.01c1.57.67,2.87,1.62,3.92,2.83,1.04,1.21,1.78,2.65,2.21,4.31.43,1.66.51,3.48.25,5.46-.3,1.98-.9,3.8-1.79,5.46-.9,1.66-2.04,3.1-3.42,4.31-1.38,1.21-2.95,2.16-4.7,2.83-1.75.67-3.62,1.01-5.6,1.01s-3.76-.34-5.35-1.01-2.89-1.61-3.92-2.83c-1.03-1.21-1.76-2.65-2.21-4.31-.45-1.66-.52-3.48-.22-5.46ZM165.87,29.4c-.22,1.46-.19,2.83.11,4.12.3,1.29.82,2.41,1.57,3.36.75.95,1.72,1.71,2.91,2.27,1.19.56,2.58.84,4.14.84s3.02-.28,4.37-.84c1.34-.56,2.53-1.32,3.56-2.27,1.03-.95,1.87-2.07,2.52-3.36.65-1.29,1.09-2.66,1.32-4.12.22-1.46.19-2.83-.11-4.12-.3-1.29-.82-2.41-1.57-3.36-.75-.95-1.72-1.71-2.91-2.27-1.2-.56-2.58-.84-4.14-.84s-3.02.28-4.37.84c-1.34.56-2.53,1.32-3.56,2.27-1.03.95-1.87,2.07-2.52,3.36-.65,1.29-1.09,2.66-1.32,4.12Z"/><path class="cls-1" d="M195.38,16.46h3.81l5.54,22.23,11.48-22.23h3.42l-13.78,25.87h-3.47l-7-25.87Z"/><path class="cls-1" d="M225.51,16.46h3.36l-3.58,25.87h-3.36l3.58-25.87ZM226.12,6.22c.11-.71.44-1.31.98-1.79.54-.48,1.17-.73,1.88-.73s1.28.24,1.71.73c.43.49.59,1.08.48,1.79-.08.71-.39,1.31-.95,1.79-.56.49-1.2.73-1.9.73s-1.27-.24-1.68-.73c-.41-.48-.58-1.08-.5-1.79Z"/><path class="cls-1" d="M258.32,37.46c-1.61,1.98-3.43,3.4-5.46,4.26-2.04.86-4.21,1.29-6.52,1.29-1.98,0-3.72-.34-5.24-1.01-1.51-.67-2.76-1.61-3.75-2.83-.99-1.21-1.68-2.65-2.07-4.31-.39-1.66-.44-3.5-.14-5.52.26-1.94.83-3.73,1.71-5.38.88-1.64,1.98-3.07,3.3-4.28,1.32-1.21,2.82-2.17,4.48-2.86,1.66-.69,3.44-1.04,5.35-1.04s3.68.35,5.1,1.04c1.42.69,2.57,1.61,3.44,2.74.88,1.14,1.47,2.44,1.79,3.89.32,1.46.36,2.93.14,4.42l-.34,2.35h-21.73c-.11.71-.1,1.62.03,2.72.13,1.1.49,2.17,1.09,3.22.6,1.05,1.46,1.94,2.6,2.69,1.14.75,2.7,1.12,4.68,1.12,1.72,0,3.44-.41,5.18-1.23,1.74-.82,3.13-1.94,4.17-3.36l2.18,2.07ZM257.15,27.22c.15-1.16.07-2.24-.22-3.25-.3-1.01-.8-1.89-1.51-2.66-.71-.77-1.58-1.37-2.6-1.82-1.03-.45-2.16-.67-3.39-.67-1.83,0-3.41.37-4.73,1.12-1.33.75-2.42,1.61-3.28,2.58-.86.97-1.5,1.91-1.93,2.83-.43.92-.66,1.54-.7,1.88h18.37Z"/><path class="cls-1" d="M266.89,35.73c.52,1.38,1.42,2.44,2.69,3.16,1.27.73,2.67,1.09,4.2,1.09.71,0,1.44-.11,2.18-.34.75-.22,1.43-.54,2.04-.95.62-.41,1.14-.9,1.57-1.48.43-.58.7-1.24.81-1.99.11-.9,0-1.62-.36-2.16-.36-.54-.87-.98-1.54-1.32-.67-.34-1.45-.62-2.32-.84-.88-.22-1.78-.44-2.72-.64-.93-.21-1.84-.46-2.72-.76s-1.64-.71-2.3-1.23c-.65-.52-1.15-1.18-1.48-1.99-.34-.8-.41-1.82-.22-3.05.19-1.27.61-2.37,1.26-3.3.65-.93,1.45-1.71,2.38-2.32.93-.62,1.94-1.07,3.02-1.37,1.08-.3,2.17-.45,3.25-.45,2.13,0,3.91.39,5.35,1.18,1.44.78,2.47,2.02,3.11,3.7l-3.3,1.79c-.49-1.19-1.15-2.1-1.99-2.72-.84-.62-2.03-.92-3.56-.92-.6,0-1.23.09-1.9.28-.67.19-1.31.45-1.9.78-.6.34-1.1.77-1.51,1.29-.41.52-.67,1.12-.78,1.79-.15,1.16.11,2.02.78,2.58.67.56,1.56,1,2.66,1.32,1.1.32,2.3.59,3.58.81,1.29.22,2.46.59,3.53,1.09,1.06.5,1.9,1.23,2.52,2.18.62.95.81,2.31.59,4.06-.19,1.34-.61,2.51-1.26,3.5-.65.99-1.46,1.82-2.41,2.49s-2.02,1.18-3.19,1.51c-1.18.34-2.38.5-3.61.5-2.24,0-4.23-.43-5.96-1.29-1.74-.86-2.98-2.18-3.72-3.98l3.25-2.02Z"/></svg>